<svg xmlns="http://www.w3.org/2000/svg" width="256" height="256" viewBox="0 0 100 100"><rect width="100" height="100" rx="20" fill="#000000"></rect><path fill="#ffffff" d="M60.67 63.62L60.67 16.83L68.60 16.83L68.60 63.62Q68.60 69.88 66.30 74.26Q64.00 78.64 59.81 80.91Q55.63 83.17 49.94 83.17L49.94 83.17Q44.57 83.17 40.38 81.21Q36.19 79.24 33.80 75.60Q31.40 71.96 31.40 66.94L31.40 66.94L39.20 66.94Q39.20 69.72 40.59 71.78Q41.98 73.84 44.41 74.99Q46.84 76.14 49.94 76.14L49.94 76.14Q53.36 76.14 55.75 74.71Q58.15 73.27 59.41 70.47Q60.67 67.67 60.67 63.62L60.67 63.62Z"></path></svg>